<svg xmlns="http://www.w3.org/2000/svg" viewBox="0 0 1180 610" width="100%" height="100%">
  <defs>
    <pattern id="user-photo-dark" x="0" y="0" width="1" height="1" patternUnits="objectBoundingBox">
      <image href="profile.jpeg" width="330" height="330" preserveAspectRatio="xMidYMid slice"/>
    </pattern>

    <style>
      @import url('https://fonts.googleapis.com/css2?family=JetBrains+Mono:wght@400;700&amp;family=Inter:wght@400;500;600;700&amp;display=swap');
      .txt-mono { font-family: 'JetBrains Mono', monospace; }
      .txt-sans { font-family: 'Inter', sans-serif; }
      
      @keyframes blink { 0%, 100% { opacity: 1; } 50% { opacity: 0; } }
      .cursor { animation: blink 1s infinite; }
      
      @keyframes scanline { 0% { transform: translateY(-610px); } 100% { transform: translateY(610px); } }
      .scanline { animation: scanline 8s linear infinite; }
      
      @keyframes float { 0%, 100% { transform: translateY(0px); } 50% { transform: translateY(-10px); } }
      .floating-ascii { animation: float 6s ease-in-out infinite; }
      
      @keyframes fadeInUp { from { opacity: 0; transform: translateY(10px); } to { opacity: 1; transform: translateY(0); } }
      .reveal-1 { animation: fadeInUp 0.6s ease forwards; animation-delay: 0.8s; opacity: 0; }
      .reveal-2 { animation: fadeInUp 0.6s ease forwards; animation-delay: 1.1s; opacity: 0; }
      .reveal-3 { animation: fadeInUp 0.6s ease forwards; animation-delay: 1.4s; opacity: 0; }
      
      .pill { transition: all 0.3s ease; cursor: pointer; }
      .pill:hover { transform: scale(1.05); filter: url(#glow-strong); }
    </style>

    <linearGradient id="bg-grad" x1="0%" y1="0%" x2="100%" y2="100%">
      <stop offset="0%" stop-color="#030712" />
      <stop offset="100%" stop-color="#0b0f19" />
    </linearGradient>
    
    <linearGradient id="accent-grad" x1="0%" y1="0%" x2="100%" y2="0%">
      <stop offset="0%" stop-color="#7C3AED"><animate attributeName="stop-color" values="#7C3AED;#22D3EE;#10B981;#7C3AED" dur="10s" repeatCount="indefinite"/></stop>
      <stop offset="50%" stop-color="#22D3EE"><animate attributeName="stop-color" values="#22D3EE;#10B981;#7C3AED;#22D3EE" dur="10s" repeatCount="indefinite"/></stop>
      <stop offset="100%" stop-color="#10B981"><animate attributeName="stop-color" values="#10B981;#7C3AED;#22D3EE;#10B981" dur="10s" repeatCount="indefinite"/></stop>
    </linearGradient>

    <linearGradient id="border-grad" x1="0%" y1="0%" x2="100%" y2="100%">
      <stop offset="0%" stop-color="rgba(255,255,255,0.08)" />
      <stop offset="50%" stop-color="rgba(124,58,237,0.3)"><animate attributeName="stop-opacity" values="0.3;0.8;0.3" dur="4s" repeatCount="indefinite"/></stop>
      <stop offset="100%" stop-color="rgba(255,255,255,0.02)" />
    </linearGradient>

    <filter id="glow-subtle" x="-20%" y="-20%" width="140%" height="140%"><feGaussianBlur stdDeviation="40" result="blur" /></filter>
    <filter id="glow-strong" x="-20%" y="-20%" width="140%" height="140%"><feGaussianBlur stdDeviation="8" result="blur" /><feComposite in="SourceGraphic" in2="blur" operator="over" /></filter>
    <filter id="noise">
      <feTurbulence type="fractalNoise" baseFrequency="0.8" numOctaves="3" result="noise" />
      <feColorMatrix type="matrix" values="1 0 0 0 0  0 1 0 0 0  0 0 1 0 0  0 0 0 0.03 0" />
      <feComposite operator="in" in2="SourceGraphic" />
    </filter>
  </defs>

  <rect width="1180" height="610" rx="24" fill="url(#bg-grad)" />
  <rect width="1180" height="610" rx="24" fill="#000" filter="url(#noise)" />
  <circle cx="200" cy="200" r="250" fill="#7C3AED" opacity="0.15" filter="url(#glow-subtle)"><animate attributeName="cx" values="200;300;200" dur="12s" repeatCount="indefinite"/></circle>
  <circle cx="950" cy="400" r="300" fill="#06B6D4" opacity="0.12" filter="url(#glow-subtle)"><animate attributeName="cy" values="400;300;400" dur="15s" repeatCount="indefinite"/></circle>

  <!-- LEFT PANEL: FOTO PROFIL (Sudah digeser ke kanan x=75 biar lebih dekat) -->
  <g transform="translate(75, 40)" class="floating-ascii">
    <rect width="400" height="530" rx="16" fill="#0F172A" fill-opacity="0.4" stroke="url(#border-grad)" stroke-width="1.5" style="backdrop-filter: blur(12px);" />
    <line x1="0" y1="0" x2="400" y2="0" stroke="rgba(34,211,238,0.15)" stroke-width="2" class="scanline" />
    <rect x="35" y="45" width="330" height="330" rx="16" fill="url(#user-photo-dark)" style="filter: drop-shadow(0 0 15px rgba(124,58,237,0.25));"/>

    <g class="txt-sans" font-size="12">
      <text x="35" y="415" fill="#94A3B8">[ STATUS: ACTIVE ]</text>
      <text x="35" y="440" fill="#F8FAFC" font-weight="bold" class="txt-mono">&gt; irfansopandi.init()</text>
      <text x="35" y="465" fill="#94A3B8" font-size="11">📍 Karawang, Indonesia[cite: 2]</text>
      <text x="35" y="485" fill="#94A3B8" font-size="11">🎓 Information Systems Student[cite: 2]</text>
    </g>
    <rect x="35" y="505" width="12" height="2" fill="#06b6d4" class="cursor" />
  </g>

  <!-- RIGHT PANEL: CONTENT TERMINAL (Sudah digeser ke kiri x=505 biar lebih rapat) -->
  <g transform="translate(505, 40)">
    <rect width="600" height="530" rx="16" fill="#0F172A" fill-opacity="0.7" stroke="url(#border-grad)" stroke-width="1.5" style="backdrop-filter: blur(20px);" />
    <circle cx="25" cy="25" r="6" fill="#EF4444" /><circle cx="45" cy="25" r="6" fill="#F59E0B" /><circle cx="65" cy="25" r="6" fill="#10B981" />
    <text x="300" y="30" fill="#94A3B8" font-size="13" text-anchor="middle" class="txt-mono" opacity="0.5">irfansopandi@terminal:~</text>
    <line x1="0" y1="50" x2="600" y2="50" stroke="rgba(255,255,255,0.05)" stroke-width="1" />

    <g transform="translate(30, 90)">
      <text x="0" y="0" fill="#94A3B8" font-size="16" class="txt-mono">&gt; cat featured_projects.md</text>
      <text x="0" y="40" fill="#F8FAFC" font-size="32" font-weight="800" class="txt-sans">Hi, I'm <tspan fill="url(#accent-grad)">Irfan Sopandi</tspan></text>

      <g transform="translate(0, 75)" class="txt-sans">
        <text x="0" y="0" fill="#22D3EE" font-size="14" font-weight="700" class="txt-mono" letter-spacing="1">🚀 FEATURED PROJECTS</text>
        
        <g class="reveal-1" transform="translate(0, 25)">
          <text x="0" y="0" fill="#F8FAFC" font-weight="700" font-size="15">🎵 Five Fest[cite: 2]</text>
          <text x="0" y="20" fill="#94A3B8" font-size="13">Web platform for music festival &amp; concert ticketing management.[cite: 2]</text>
          <text x="0" y="38" fill="#10B981" font-size="11" class="txt-mono">[ Laravel • PHP • MySQL • Midtrans • Spotify API ]</text>
        </g>
        <g class="reveal-2" transform="translate(0, 100)">
          <text x="0" y="0" fill="#F8FAFC" font-weight="700" font-size="15">🆘 SIGANA[cite: 2]</text>
          <text x="0" y="20" fill="#94A3B8" font-size="13">Disaster response information system &amp; donation tracking platform.[cite: 2]</text>
          <text x="0" y="38" fill="#10B981" font-size="11" class="txt-mono">[ Laravel • PHP • MySQL • Midtrans • Bootstrap ]</text>
        </g>
        <g class="reveal-3" transform="translate(0, 175)">
          <text x="0" y="0" fill="#F8FAFC" font-weight="700" font-size="15">💰 Money Manager App[cite: 2]</text>
          <text x="0" y="20" fill="#94A3B8" font-size="13">Intuitive mobile application for personal finance tracking.[cite: 2]</text>
          <text x="0" y="38" fill="#10B981" font-size="11" class="txt-mono">[ Flutter • Dart • Provider • SharedPreferences ]</text>
        </g>
      </g>

      <g transform="translate(0, 325)">
        <text x="0" y="0" fill="#F8FAFC" font-size="13" font-weight="700" class="txt-mono" letter-spacing="1">// STACK</text>
        <g transform="translate(0, 15)">
          <g class="pill" transform="translate(0,0)"><rect width="65" height="26" rx="13" fill="rgba(255,45,32,0.12)" stroke="rgba(255,45,32,0.3)"/><text x="32.5" y="17" fill="#f8fafc" font-size="11" text-anchor="middle">Laravel[cite: 2]</text></g>
          <g class="pill" transform="translate(73,0)"><rect width="65" height="26" rx="13" fill="rgba(2,86,155,0.12)" stroke="rgba(2,86,155,0.3)"/><text x="32.5" y="17" fill="#f8fafc" font-size="11" text-anchor="middle">Flutter[cite: 2]</text></g>
          <g class="pill" transform="translate(146,0)"><rect width="80" height="26" rx="13" fill="rgba(242,78,30,0.12)" stroke="rgba(242,78,30,0.3)"/><text x="40" y="17" fill="#f8fafc" font-size="11" text-anchor="middle">UI/UX Figma[cite: 2]</text></g>
          <g class="pill" transform="translate(234,0)"><rect width="50" height="26" rx="13" fill="rgba(119,123,180,0.12)" stroke="rgba(119,123,180,0.3)"/><text x="25" y="17" fill="#f8fafc" font-size="11" text-anchor="middle">PHP[cite: 2]</text></g>
          <g class="pill" transform="translate(292,0)"><rect width="50" height="26" rx="13" fill="rgba(240,80,50,0.12)" stroke="rgba(240,80,50,0.3)"/><text x="25" y="17" fill="#f8fafc" font-size="11" text-anchor="middle">Git[cite: 2]</text></g>
        </g>
      </g>

      <g transform="translate(0, 405)">
        <a href="https://linkedin.com/in/irfansopandi" target="_blank">
          <g class="pill" transform="translate(0,0)">
            <circle cx="14" cy="14" r="14" fill="rgba(255,255,255,0.05)" stroke="rgba(255,255,255,0.1)"/>
            <path d="M9,8 L11.5,8 L11.5,9.3 C12,8.5 13.1,8 14.3,8 C16.8,8 17.7,9.3 17.7,12 L17.7,17.7 L15,17.7 L15,12.8 C15,11.5 14.5,10.6 13.4,10.6 C12.5,10.6 11.9,11.2 11.9,12.2 L11.9,17.7 L9,17.7 L9,8 Z M4.5,8 L7.2,8 L7.2,17.7 L4.5,17.7 L4.5,8 Z M5.8,3.6 C6.7,3.6 7.3,4.3 7.3,5.2 C7.3,6.1 6.7,6.7 5.8,6.7 C4.9,6.7 4.3,6.1 4.3,5.2 C4.3,4.3 4.9,3.6 5.8,3.6 Z" fill="#94A3B8"/>
          </g>
        </a>
        <a href="https://twitter.com/irfansopandi" target="_blank">
          <g class="pill" transform="translate(40,0)">
            <circle cx="14" cy="14" r="14" fill="rgba(255,255,255,0.05)" stroke="rgba(255,255,255,0.1)"/>
            <path d="M18.2,6 L22.5,6 L13.1,16.7 L24,31 L15.4,31 L8.6,22.2 L1,31 L-3.3,31 L6.7,19.6 L-3.5,6 L5.3,6 L11.5,14.2 L18.2,6 Z" fill="#94A3B8" transform="scale(0.6) translate(6, 4)"/>
          </g>
        </a>
      </g>
    </g>
  </g>
</svg>
